{"title":"Mou mian bei (1995) aka Burger Cop aka Don't Give a Damn","uid":14443269,"size":1502753023,"categoryP":"video","categoryS":"movies","magnet":"?xt=urn:btih:ee2c1248fb169e37e11b5e4165f25f671388e3c0&amp;dn=Mou+mian+bei+%281995%29+aka+Burger+Cop+aka+Don%27t+Give+a+Damn&amp;tr=udp%3A%2F%2Ftracker.leechers-paradise.org%3A6969&amp;tr=udp%3A%2F%2Fzer0day.ch%3A1337&amp;tr=udp%3A%2F%2Fopen.demonii.com%3A1337&amp;tr=udp%3A%2F%2Ftracker.coppersurfer.tk%3A6969&amp;tr=udp%3A%2F%2Fexodus.desync.com%3A6969","seeders":0,"leechers":2,"uploader":"drdre10","files":1,"time":1461700972,"description":"Sammo Hung plays a cop on the trail of drug dealers. Customs officer Yuen Biao is investigating the same gang. Sammo's new partner is eager-beaver Takeshi Kaneshiro. Despite each having their own ideas on how best to proceed, they are teamed together and must put aside their differences in order to crack the case. Romance, plot twists, comedic asides, and, of course, plenty of fights bring the film to a climatic and bruising conclusion.\r\n \nhttps://www.themoviedb.org/movie/201099?language=en-US\r\n\r\nAudio: Cantonese; Hardsub: English &amp; Chinese\r\n\r\n\r\nFormat                                   : MPEG-4\r\nFormat profile                           : Base Media / Version 2\r\nCodec ID                                 : mp42 (isom/mp42)\r\nFile size                                : 1.40 GiB\r\nDuration                                 : 1h 34mn\r\nOverall bit rate mode                    : Variable\r\nOverall bit rate                         : 2 115 Kbps\r\nEncoded date                             : UTC 2014-02-21 18:42:41\r\nTagged date                              : UTC 2014-02-21 18:42:41\r\ngsst                                     : 0\r\ngstd                                     : 5684940\r\ngssd                                     : B3A1B6DC9HH1400477480905208\r\ngshh                                     : r6---sn-uh-30al.googlevideo.com\r\n\r\nVideo\r\nID                                       : 1\r\nFormat                                   : AVC\r\nFormat/Info                              : Advanced Video Codec\r\nFormat profile                           :   \r\nFormat settings, CABAC                   : Yes\r\nFormat settings, ReFrames                : 1 frame\r\nCodec ID                                 : avc1\r\nCodec ID/Info                            : Advanced Video Coding\r\nDuration                                 : 1h 34mn\r\nBit rate                                 : 1 920 Kbps\r\nMaximum bit rate                         : 4 832 Kbps\r\nWidth                                    : 1 280 pixels\r\nHeight                                   : 720 pixels\r\nDisplay aspect ratio                     : 16:9\r\nFrame rate mode                          : Constant\r\nFrame rate                               : 29.970 (30000/1001) fps\r\nColor space                              : YUV\r\nChroma subsampling                       : 4:2:0\r\nBit depth                                : 8 bits\r\nScan type                                : Progressive\r\nBits/(Pixel*Frame)                       : 0.070\r\nStream size                              : 1.27 GiB (91%)\r\nTagged date                              : UTC 2014-02-21 18:54:08\r\n\r\nAudio\r\nID                                       : 2\r\nFormat                                   : AAC\r\nFormat/Info                              : Advanced Audio Codec\r\nFormat profile                           : LC\r\nCodec ID                                 : 40\r\nDuration                                 : 1h 34mn\r\nBit rate mode                            : Variable\r\nBit rate                                 : 192 Kbps\r\nMaximum bit rate                         : 201 Kbps\r\nChannel(s)                               : 2 channels\r\nChannel positions                        : Front: L R\r\nSampling rate                            : 44.1 KHz\r\nFrame rate                               : 43.066 fps (1024 spf)\r\nCompression mode                         : Lossy\r\nStream size                              : 130 MiB (9%)\r\nTitle                                    : IsoMedia File Produced by Google, 5-11-2011\r\nEncoded date                             : UTC 2014-02-21 18:49:48\r\nTagged date                              : UTC 2014-02-21 18:54:08","torrent":{"xt":"urn:btih:ee2c1248fb169e37e11b5e4165f25f671388e3c0","amp;dn":"Mou+mian+bei+%281995%29+aka+Burger+Cop+aka+Don%27t+Give+a+Damn","amp;tr":["udp%3A%2F%2Ftracker.leechers-paradise.org%3A6969","udp%3A%2F%2Fzer0day.ch%3A1337","udp%3A%2F%2Fopen.demonii.com%3A1337","udp%3A%2F%2Ftracker.coppersurfer.tk%3A6969","udp%3A%2F%2Fexodus.desync.com%3A6969"],"infoHash":"ee2c1248fb169e37e11b5e4165f25f671388e3c0","infoHashBuffer":{"type":"Buffer","data":[238,44,18,72,251,22,158,55,225,27,94,65,101,242,95,103,19,136,227,192]},"announce":[],"urlList":[]}}